<svg width="32" height="32" viewBox="0 0 32 32" fill="none" xmlns="http://www.w3.org/2000/svg">
  <!-- Excel-style green gradient background -->
  <defs>
    <linearGradient id="excelGreen" x1="0%" y1="0%" x2="100%" y2="100%">
      <stop offset="0%" style="stop-color:#1D6F42;stop-opacity:1" />
      <stop offset="100%" style="stop-color:#21A366;stop-opacity:1" />
    </linearGradient>
  </defs>
  
  <!-- Main document shape -->
  <path d="M6 2C4.89543 2 4 2.89543 4 4V28C4 29.1046 4.89543 30 6 30H26C27.1046 30 28 29.1046 28 28V8L22 2H6Z" fill="url(#excelGreen)"/>
  
  <!-- Folded corner -->
  <path d="M22 2V8H28" fill="#185C37"/>
  
  <!-- Letter X -->
  <text x="16" y="22" font-family="Arial, sans-serif" font-size="14" font-weight="bold" fill="white" text-anchor="middle">X</text>
  
  <!-- Grid lines to represent spreadsheet -->
  <line x1="10" y1="10" x2="22" y2="10" stroke="white" stroke-width="0.5" opacity="0.5"/>
  <line x1="10" y1="13" x2="22" y2="13" stroke="white" stroke-width="0.5" opacity="0.5"/>
  <line x1="10" y1="16" x2="22" y2="16" stroke="white" stroke-width="0.5" opacity="0.5"/>
  <line x1="13" y1="10" x2="13" y2="16" stroke="white" stroke-width="0.5" opacity="0.5"/>
  <line x1="16" y1="10" x2="16" y2="16" stroke="white" stroke-width="0.5" opacity="0.5"/>
  <line x1="19" y1="10" x2="19" y2="16" stroke="white" stroke-width="0.5" opacity="0.5"/>
</svg>
